<svg id="regulator" viewBox="0 0 64 64" version="1.1" xmlns="http://www.w3.org/2000/svg" xmlns:xlink="http://www.w3.org/1999/xlink">
    <path d="M31.3741909,1.79216609 C20.3969182,1.79216609 11.4642818,10.8568028 11.4642818,21.9986713 C11.4642818,33.1405398 20.3969182,42.2071142 31.3741909,42.2071142 C42.3514636,42.2071142 51.2841,33.1405398 51.2841,21.9986713 C51.2841,10.8568028 42.3514636,1.79216609 31.3741909,1.79216609 M31.3741909,43.8851765 C19.4843727,43.8851765 9.81291818,34.0667682 9.81291818,21.9986713 C9.81291818,9.93057439 19.4843727,0.114103806 31.3741909,0.114103806 C43.2640091,0.114103806 52.9354636,9.93057439 52.9354636,21.9986713 C52.9354636,34.0667682 43.2640091,43.8851765 31.3741909,43.8851765"></path>
    <path d="M61.6493182,47.8852042 C61.4641364,47.8852042 61.2808636,47.8231972 61.1262273,47.695308 L46.9435909,35.9217439 C46.5904091,35.6272111 46.5388636,35.1001522 46.8271364,34.7416747 C47.1154091,34.3812595 47.6365909,34.3289412 47.9916818,34.623474 L62.1724091,46.3970381 C62.5255909,46.6896332 62.5771364,47.2186298 62.2888636,47.5771073 C62.1265909,47.7805675 61.8879545,47.8852042 61.6493182,47.8852042"></path>
    <path d="M26.8866818,29.7958478 C26.5755,29.7958478 26.2891364,29.6175779 26.1478636,29.3327336 L22.4709545,21.8841522 L18.3874091,29.0401384 C18.1564091,29.4412457 17.6505,29.5749481 17.2572273,29.3443599 C16.8620455,29.1118339 16.7284091,28.5983391 16.9555909,28.1991696 L21.8104091,19.6964706 C21.9631364,19.4310035 22.1483182,19.270173 22.5511364,19.2798616 C22.8546818,19.2876125 23.1276818,19.4658824 23.2651364,19.7429758 L26.7969545,26.9008997 L30.6036818,17.1057439 C30.7277727,16.7879585 31.0294091,16.5767474 31.3673182,16.5748097 L31.3730455,16.5748097 C31.7071364,16.5748097 32.0087727,16.7802076 32.1366818,17.0941176 L34.7979545,23.6435986 L41.3919545,12.2672664 C41.6210455,11.8661592 42.1288636,11.7363322 42.5221364,11.9707958 C42.9154091,12.2052595 43.0471364,12.7187543 42.8161364,13.1179239 L35.3783182,25.949481 C35.2198636,26.222699 34.9239545,26.393218 34.6089545,26.3622145 C34.2958636,26.3389619 34.0209545,26.1393772 33.9025909,25.8448443 L31.3883182,19.6577163 L27.6541364,29.2649135 C27.5357727,29.5730104 27.2475,29.780346 26.9248636,29.7958478 L26.8866818,29.7958478"></path>
    <path d="M31.3741909,63.2487751 L11.5425545,63.2487751 C11.3230091,63.2487751 11.1149182,63.1596401 10.9583727,63.0026851 L0.515645455,52.3995017 C0.361009091,52.2425467 0.2751,52.0274602 0.2751,51.8065606 L0.2751,24.0584637 C0.2751,23.5953495 0.643554545,23.2194325 1.10173636,23.2194325 L10.7350091,23.2194325 C11.1931909,23.2194325 11.5616455,23.5953495 11.5616455,24.0584637 C11.5616455,24.5215779 11.1931909,24.8974948 10.7350091,24.8974948 L1.92646364,24.8974948 L1.92646364,51.4597093 L11.8861909,61.5707128 L30.5475545,61.5707128 L30.5475545,43.0461453 C30.5475545,42.5810934 30.9179182,42.2071142 31.3741909,42.2071142 C31.8304636,42.2071142 32.2008273,42.5810934 32.2008273,43.0461453 L32.2008273,62.4097439 C32.2008273,62.8728581 31.8304636,63.2487751 31.3741909,63.2487751"></path>
    <path d="M11.5467545,63.2487751 C11.0904818,63.2487751 10.7201182,62.8728581 10.7201182,62.4097439 L10.7201182,52.6455917 L1.10020909,52.6455917 C0.643936364,52.6455917 0.275481818,52.2696747 0.275481818,51.8065606 C0.275481818,51.3415087 0.643936364,50.9675294 1.10020909,50.9675294 L11.5467545,50.9675294 C12.0030273,50.9675294 12.3733909,51.3415087 12.3733909,51.8065606 L12.3733909,62.4097439 C12.3733909,62.8728581 12.0030273,63.2487751 11.5467545,63.2487751"></path>
</svg>