<svg id="buyer" version="1.1" viewBox="0 0 64 64" xmlns="http://www.w3.org/2000/svg">
    <path d="m54.47 38.128h-33.358c-3.8251 0-6.0902-2.1974-7.3401-7.1211l-5.9972-29.044h-6.2143c-0.46311 0-0.83709-0.37592-0.83709-0.83903 0-0.46311 0.37398-0.83903 0.83709-0.83903h6.8983c0.39723 0 0.74215 0.27903 0.82159 0.66851l6.1271 29.678c1.0464 4.1215 2.7012 5.819 5.7046 5.819h33.358c2.7167 0 4.1235-1.2033 4.5594-3.9006l3.0248-21.687h-44.99c-0.46311 0-0.83709-0.37592-0.83709-0.83903 0-0.46311 0.37398-0.83903 0.83709-0.83903h45.955c0.24221 0 0.4728 0.10464 0.6317 0.28872 0.16083 0.18215 0.23253 0.4263 0.19958 0.66657l-3.1624 22.66c-0.56388 3.4918-2.7128 5.3287-6.2181 5.3287"/>
    <path d="m58.902 48.053h-35.7c-3.982 0-6.3266-2.2613-7.3808-7.1153l-5.4896-26.512c-0.094948-0.45343 0.19571-0.89716 0.65107-0.99017 0.46311-0.098824 0.89716 0.19765 0.99017 0.65107l5.4876 26.502c0.87972 4.0537 2.5985 5.786 5.7415 5.786h35.7c0.46311 0 0.83903 0.37592 0.83903 0.83903s-0.37592 0.83903-0.83903 0.83903"/>
    <path d="m22.784 54.241c-2.0675 0-3.7514 1.6819-3.7514 3.7495 0 2.0656 1.6839 3.7495 3.7514 3.7495 2.0675 0 3.7514-1.6839 3.7514-3.7495 0-2.0675-1.6839-3.7495-3.7514-3.7495m0 9.177c-2.9938 0-5.4275-2.4357-5.4275-5.4275 0-2.9938 2.4338-5.4275 5.4275-5.4275 2.9938 0 5.4275 2.4338 5.4275 5.4275 0 2.9918-2.4338 5.4275-5.4275 5.4275"/>
    <path d="m51.31 54.241c-2.0675 0-3.7514 1.6819-3.7514 3.7495 0 2.0656 1.6839 3.7495 3.7514 3.7495 2.0675 0 3.7514-1.6839 3.7514-3.7495 0-2.0675-1.6839-3.7495-3.7514-3.7495m0 9.177c-2.9938 0-5.4275-2.4357-5.4275-5.4275 0-2.9938 2.4338-5.4275 5.4275-5.4275 2.9938 0 5.4275 2.4338 5.4275 5.4275 0 2.9918-2.4338 5.4275-5.4275 5.4275"/>
</svg>
