<svg id="manufacturer" viewBox="0 0 64 64" version="1.1" xmlns="http://www.w3.org/2000/svg" xmlns:xlink="http://www.w3.org/1999/xlink">
    <path d="M16.7837727,23.3353909 C16.9995,23.3353909 17.2114091,23.4193909 17.3679545,23.5778455 L39.2805,45.4884818 C39.5095909,45.7194818 39.5840455,46.0612091 39.4695,46.3647545 C37.9517727,50.3814818 38.9292273,54.9289364 41.9551364,57.9567545 C45.0593182,61.0628455 49.6354091,61.9868455 53.6502273,60.4099364 L46.5751364,53.3348455 C45.7446818,52.5063 45.2884091,51.4047545 45.2884091,50.2306636 C45.2884091,49.0584818 45.7446818,47.9550273 46.5751364,47.1264818 C48.2875909,45.4140273 51.0748636,45.4159364 52.7835,47.1264818 L59.8585909,54.1996636 C61.4355,50.1867545 60.5115,45.6106636 57.4054091,42.5064818 C54.3795,39.4805727 49.8301364,38.5031182 45.8153182,40.0208455 C45.5079545,40.1334818 45.1681364,40.0609364 44.9390455,39.8318455 L23.0265,17.9193 C22.7974091,17.6902091 22.7229545,17.3465727 22.8375,17.0430273 C24.3533182,13.0282091 23.3796818,8.47884545 20.3518636,5.45102727 C17.2457727,2.34684545 12.6658636,1.42284545 8.65677273,2.99784545 L15.7318636,10.0729364 C17.4424091,11.7853909 17.4424091,14.5707545 15.7318636,16.2832091 C14.0213182,17.9937545 11.2359545,17.9956636 9.52159091,16.2832091 L2.4465,9.20811818 C0.873409091,13.2210273 1.7955,17.7990273 4.89968182,20.9032091 C7.9275,23.9310273 12.4787727,24.9046636 16.4916818,23.3888455 C16.5871364,23.3525727 16.6864091,23.3353909 16.7837727,23.3353909 M49.6678636,62.8211182 C46.4147727,62.8211182 43.2094091,61.5515727 40.7848636,59.1251182 C37.4267727,55.7670273 36.2622273,50.7823909 37.7436818,46.2903 L16.5680455,25.1146636 C12.0778636,26.5961182 7.08940909,25.4315727 3.73131818,22.0715727 C-0.159409091,18.1808455 -1.07386364,12.2836636 1.45377273,7.40020909 C1.57404545,7.16539091 1.79931818,7.00311818 2.06086364,6.96302727 C2.31668182,6.92102727 2.58586364,7.00693636 2.77295455,7.19402727 L10.6899545,15.1129364 C11.7590455,16.1801182 13.4963182,16.1801182 14.5615909,15.1129364 C15.6306818,14.0457545 15.6306818,12.3103909 14.5615909,11.2413 L6.64268182,3.3243 C6.4575,3.13720909 6.36968182,2.87375455 6.41168182,2.61220909 C6.45177273,2.35066364 6.61404545,2.12539091 6.84886364,2.00511818 C11.7342273,-0.522518182 17.6295,0.391936364 21.5202273,4.28266364 C24.8783182,7.64075455 26.0447727,12.6253909 24.5633182,17.1193909 L45.7389545,38.2931182 C50.2310455,36.8097545 55.2156818,37.9781182 58.5737727,41.3362091 C62.4645,45.2269364 63.3808636,51.1222091 60.8532273,56.0094818 C60.7329545,56.2423909 60.5057727,56.4046636 60.2461364,56.4447545 C59.9845909,56.4848455 59.7211364,56.3989364 59.5340455,56.2137545 L51.6151364,48.2948455 C50.5479545,47.2295727 48.8125909,47.2295727 47.7435,48.2948455 C47.2261364,48.8122091 46.9416818,49.4994818 46.9416818,50.2306636 C46.9416818,50.9618455 47.2261364,51.6491182 47.7435,52.1664818 L55.6624091,60.0853909 C55.8475909,60.2724818 55.9354091,60.5359364 55.8934091,60.7974818 C55.8533182,61.0571182 55.6910455,61.2823909 55.4581364,61.4045727 C53.6177727,62.3553 51.6323182,62.8211182 49.6678636,62.8211182" id="Fill-276"></path>
    <path d="M41.1936,29.3068364 C40.9816909,29.3068364 40.7697818,29.2266545 40.6094182,29.0643818 C40.2867818,28.7417455 40.2867818,28.2186545 40.6094182,27.8960182 L59.4273273,9.0762 C60.1833273,8.32210909 60.5995091,7.31792727 60.5995091,6.25074545 C60.5995091,5.18356364 60.1833273,4.17938182 59.4273273,3.42529091 C57.9172364,1.9152 55.2865091,1.9152 53.7764182,3.42529091 L34.9566,22.2432 C34.6339636,22.5658364 34.1108727,22.5658364 33.7882364,22.2432 C33.4656,21.9205636 33.4656,21.3955636 33.7882364,21.0748364 L52.6080545,2.25692727 C54.7405091,0.120654545 58.4613273,0.120654545 60.5976,2.25692727 C61.6647818,3.3222 62.2527818,4.74065455 62.2527818,6.25074545 C62.2527818,7.75892727 61.6647818,9.17929091 60.5976,10.2464727 L41.7777818,29.0643818 C41.6174182,29.2266545 41.4055091,29.3068364 41.1936,29.3068364" id="Fill-277"></path>
    <path d="M37.7352818,25.8485182 C37.5233727,25.8485182 37.3114636,25.7683364 37.1511,25.6060636 C36.8284636,25.2834273 36.8284636,24.7603364 37.1511,24.4377 L55.9117364,5.67706364 C56.2343727,5.35442727 56.7574636,5.35442727 57.0801,5.67706364 C57.4027364,5.9997 57.4027364,6.52279091 57.0801,6.84542727 L38.3194636,25.6060636 C38.1591,25.7683364 37.9471909,25.8485182 37.7352818,25.8485182" id="Fill-278"></path>
    <path d="M8.86772727,54.8121 C8.65581818,54.8121 8.44390909,54.7319182 8.28354545,54.5696455 C7.96090909,54.2470091 7.96090909,53.7239182 8.28354545,53.4012818 L23.9075455,37.7753727 C24.2301818,37.4527364 24.7551818,37.4527364 25.0778182,37.7753727 C25.4004545,38.0980091 25.4004545,38.6211 25.0778182,38.9437364 L9.45190909,54.5696455 C9.29154545,54.7319182 9.07963636,54.8121 8.86772727,54.8121" id="Fill-279"></path>
    <path d="M2.0181,58.4262 L4.42737273,60.8354727 L9.72700909,56.0131091 L6.83855455,53.1265636 L2.0181,58.4262 Z M4.40064545,62.8037455 C4.18873636,62.8037455 3.97682727,62.7216545 3.81455455,62.5612909 L0.292281818,59.0371091 C-0.0208090909,58.7259273 -0.0322636364,58.2238364 0.265554545,57.8973818 L6.19900909,51.3721091 C6.35173636,51.2041091 6.56555455,51.1067455 6.79082727,51.1010182 C7.00846364,51.0819273 7.23564545,51.1831091 7.3941,51.3434727 L11.5081909,55.4575636 C11.6685545,55.6160182 11.7563727,55.8355636 11.7506455,56.0608364 C11.7449182,56.2861091 11.6475545,56.5018364 11.4814636,56.6526545 L4.95619091,62.5880182 C4.79773636,62.7312 4.59919091,62.8037455 4.40064545,62.8037455 L4.40064545,62.8037455 Z" id="Fill-280"></path>
</svg>